<svg xmlns="http://www.w3.org/2000/svg" width="1000" height="1000"><style>.bg{fill:#151922}.platform{fill:#4a9d59;stroke:#bde6a5;stroke-width:2}.ramp{fill:#d9aa4d;stroke:#ffe09a;opacity:.85}.link{fill:#4f83b8;stroke:#b8ddff;opacity:.75}.decor{fill:#315f38;opacity:.75}.blocker{fill:#ad4e46;opacity:.8}.arrival{fill:#fff;stroke:#00e5ff;stroke-width:4}.path{fill:none;stroke:#ff4fe1;stroke-width:4}text{fill:white;font-family:Arial}</style><rect class="bg" width="1000" height="1000"/>
<rect class="platform" x="506.46" y="185.25" width="127.05" height="110.66"/>
<rect class="platform" x="363.02" y="226.23" width="118.85" height="102.46"/>
<rect class="platform" x="829.72" y="294.35" width="110.66" height="110.66"/>
<rect class="platform" x="842.02" y="429.60" width="86.07" height="77.87"/>
<rect class="platform" x="842.02" y="191.89" width="86.07" height="77.87"/>
<rect class="platform" x="121.96" y="862.45" width="241.80" height="94.26"/>
<rect class="platform" x="82.49" y="376.33" width="118.85" height="98.36"/>
<rect class="platform" x="74.30" y="247.24" width="135.25" height="118.85"/>
<rect class="platform" x="90.69" y="152.97" width="102.46" height="86.07"/>
<rect class="platform" x="678.34" y="669.89" width="139.34" height="114.75"/>
<rect class="platform" x="678.34" y="842.02" width="139.34" height="114.75"/>
<rect class="platform" x="185.05" y="590.29" width="118.85" height="155.74"/>
<rect class="ramp" x="506.46" y="295.90" width="127.05" height="49.18"/>
<rect class="ramp" x="363.02" y="147.37" width="118.85" height="78.86"/>
<rect class="ramp" x="940.38" y="294.35" width="56.71" height="110.66"/>
<rect class="ramp" x="773.01" y="294.35" width="56.71" height="110.66"/>
<rect class="ramp" x="842.02" y="507.47" width="86.07" height="49.18"/>
<rect class="ramp" x="842.02" y="142.71" width="86.07" height="49.18"/>
<rect class="ramp" x="72.78" y="862.45" width="49.18" height="94.26"/>
<rect class="ramp" x="363.77" y="862.45" width="49.18" height="94.26"/>
<rect class="ramp" x="33.31" y="376.33" width="49.18" height="98.36"/>
<rect class="ramp" x="209.54" y="247.24" width="53.33" height="118.85"/>
<rect class="ramp" x="90.69" y="103.79" width="102.46" height="49.18"/>
<rect class="ramp" x="817.68" y="669.89" width="92.18" height="114.75"/>
<rect class="ramp" x="586.16" y="842.02" width="92.18" height="114.75"/>
<rect class="ramp" x="131.84" y="590.29" width="53.21" height="155.74"/>
<rect class="ramp" x="303.90" y="590.29" width="53.21" height="155.74"/>
<rect class="ramp" x="185.05" y="537.08" width="118.85" height="53.21"/>
<rect class="link" x="643.75" y="218.03" width="175.72" height="45.08"/>
<rect class="link" x="796.93" y="240.57" width="45.08" height="109.11"/>
<rect class="link" x="748.01" y="392.71" width="137.04" height="45.08"/>
<rect class="link" x="725.47" y="415.26" width="45.08" height="244.39"/>
<rect class="link" x="353.90" y="218.03" width="142.31" height="45.08"/>
<rect class="link" x="211.59" y="218.03" width="142.31" height="45.08"/>
<rect class="link" x="189.05" y="240.57" width="45.08" height="184.94"/>
<rect class="link" x="141.92" y="462.40" width="102.55" height="45.08"/>
<rect class="link" x="221.93" y="484.94" width="45.08" height="95.10"/>
<rect class="link" x="220.32" y="756.28" width="45.08" height="95.93"/>
<circle class="blocker" cx="554.49" cy="237.86" r="36.89"/>
<circle class="blocker" cx="241.49" cy="932.93" r="36.89"/>
<circle class="blocker" cx="119.97" cy="345.22" r="36.89"/>
<circle class="blocker" cx="730.12" cy="705.48" r="36.89"/>
<circle class="blocker" cx="715.22" cy="914.12" r="36.89"/>
<circle class="blocker" cx="204.77" cy="618.41" r="36.89"/>
<circle class="blocker" cx="816.88" cy="49.77" r="36.89"/>
<circle class="blocker" cx="874.66" cy="784.75" r="36.89"/>
<circle class="blocker" cx="456.33" cy="883.81" r="36.89"/>
<circle class="blocker" cx="267.27" cy="444.63" r="36.89"/>
<circle class="blocker" cx="51.17" cy="940.13" r="36.89"/>
<circle class="blocker" cx="369.92" cy="602.32" r="36.89"/>
<circle class="blocker" cx="344.92" cy="360.67" r="36.89"/>
<circle class="blocker" cx="193.14" cy="118.62" r="36.89"/>
<circle class="blocker" cx="595.72" cy="61.96" r="36.89"/>
<circle class="blocker" cx="855.93" cy="535.88" r="36.89"/>
<circle class="blocker" cx="504.65" cy="147.32" r="36.89"/>
<circle class="blocker" cx="273.61" cy="21.46" r="36.89"/>
<circle class="blocker" cx="28.18" cy="600.35" r="36.89"/>
<circle class="blocker" cx="366.35" cy="67.36" r="36.89"/>
<circle class="blocker" cx="29.37" cy="393.78" r="36.89"/>
<circle class="blocker" cx="708.22" cy="418.45" r="36.89"/>
<circle class="decor" cx="335.08" cy="906.60" r="7.79"/>
<circle class="decor" cx="116.28" cy="447.63" r="7.79"/>
<circle class="decor" cx="114.57" cy="200.61" r="7.79"/>
<circle class="decor" cx="254.56" cy="630.82" r="7.79"/>
<circle class="decor" cx="933.39" cy="530.89" r="7.79"/>
<circle class="decor" cx="148.48" cy="708.56" r="7.79"/>
<circle class="decor" cx="79.28" cy="872.79" r="7.79"/>
<circle class="decor" cx="456.28" cy="78.52" r="7.79"/>
<circle class="decor" cx="558.69" cy="783.06" r="7.79"/>
<circle class="blocker" cx="759.62" cy="879.63" r="14.75"/>
<circle class="blocker" cx="788.18" cy="976.33" r="14.75"/>
<circle class="decor" cx="788.83" cy="723.02" r="11.07"/>
<circle class="decor" cx="779.29" cy="861.97" r="11.07"/>
<circle class="decor" cx="256.33" cy="301.04" r="11.07"/>
<circle class="decor" cx="282.61" cy="361.73" r="11.07"/>
<circle class="blocker" cx="596.27" cy="261.33" r="6.97"/>
<circle class="blocker" cx="410.65" cy="259.67" r="6.97"/>
<circle class="blocker" cx="891.39" cy="384.24" r="6.97"/>
<circle class="blocker" cx="898.96" cy="472.05" r="6.97"/>
<circle class="blocker" cx="155.67" cy="932.40" r="6.97"/>
<circle class="blocker" cx="157.88" cy="280.75" r="6.97"/>
<circle class="blocker" cx="167.55" cy="216.75" r="6.97"/>
<circle class="blocker" cx="703.23" cy="746.35" r="6.97"/>
<circle class="blocker" cx="700.39" cy="861.29" r="6.97"/>
<circle class="blocker" cx="202.14" cy="689.45" r="6.97"/>
<circle class="blocker" cx="640.67" cy="585.61" r="6.97"/>
<circle class="blocker" cx="197.85" cy="816.17" r="6.97"/>
<circle class="blocker" cx="939.72" cy="956.28" r="6.97"/>
<circle class="blocker" cx="115.48" cy="498.25" r="6.97"/>
<circle class="blocker" cx="961.01" cy="658.42" r="6.97"/>
<circle class="blocker" cx="319.81" cy="158.64" r="6.97"/>
<circle class="blocker" cx="962.60" cy="554.01" r="6.97"/>
<circle class="blocker" cx="892.54" cy="880.04" r="6.97"/>
<circle class="blocker" cx="942.49" cy="246.96" r="6.97"/>
<circle class="blocker" cx="747.21" cy="810.64" r="6.97"/>
<circle class="blocker" cx="743.67" cy="120.05" r="6.97"/>
<circle class="decor" cx="576.70" cy="272.60" r="2.00"/>
<circle class="decor" cx="609.89" cy="230.20" r="2.00"/>
<circle class="decor" cx="606.84" cy="276.22" r="2.00"/>
<circle class="decor" cx="556.22" cy="280.18" r="2.00"/>
<circle class="decor" cx="425.45" cy="306.83" r="2.00"/>
<circle class="decor" cx="466.21" cy="278.52" r="2.00"/>
<circle class="decor" cx="442.75" cy="292.45" r="2.00"/>
<circle class="decor" cx="893.57" cy="353.78" r="2.00"/>
<circle class="decor" cx="889.95" cy="341.77" r="2.00"/>
<circle class="decor" cx="871.65" cy="321.47" r="2.00"/>
<circle class="decor" cx="874.33" cy="336.65" r="2.00"/>
<circle class="decor" cx="859.24" cy="456.19" r="2.00"/>
<circle class="decor" cx="875.55" cy="208.79" r="2.00"/>
<circle class="decor" cx="882.00" cy="214.90" r="2.00"/>
<circle class="decor" cx="243.03" cy="892.56" r="2.00"/>
<circle class="decor" cx="323.02" cy="934.82" r="2.00"/>
<circle class="decor" cx="285.62" cy="903.31" r="2.00"/>
<circle class="decor" cx="308.34" cy="911.55" r="2.00"/>
<circle class="decor" cx="182.59" cy="913.15" r="2.00"/>
<circle class="decor" cx="287.81" cy="938.16" r="2.00"/>
<circle class="decor" cx="110.59" cy="394.91" r="2.00"/>
<circle class="decor" cx="180.67" cy="439.29" r="2.00"/>
<circle class="decor" cx="185.23" cy="448.99" r="2.00"/>
<circle class="decor" cx="170.41" cy="319.16" r="2.00"/>
<circle class="decor" cx="127.90" cy="298.69" r="2.00"/>
<circle class="decor" cx="154.87" cy="262.38" r="2.00"/>
<circle class="decor" cx="161.64" cy="340.28" r="2.00"/>
<circle class="decor" cx="134.16" cy="191.04" r="2.00"/>
<circle class="decor" cx="170.00" cy="179.26" r="2.00"/>
<circle class="decor" cx="154.77" cy="224.24" r="2.00"/>
<circle class="decor" cx="774.23" cy="711.75" r="2.00"/>
<circle class="decor" cx="725.96" cy="763.94" r="2.00"/>
<circle class="decor" cx="710.36" cy="761.25" r="2.00"/>
<circle class="decor" cx="740.23" cy="754.35" r="2.00"/>
<circle class="decor" cx="730.64" cy="859.70" r="2.00"/>
<circle class="decor" cx="793.95" cy="890.33" r="2.00"/>
<circle class="decor" cx="710.46" cy="862.21" r="2.00"/>
<circle class="decor" cx="756.21" cy="936.10" r="2.00"/>
<circle class="decor" cx="278.79" cy="702.80" r="2.00"/>
<circle class="decor" cx="200.24" cy="728.09" r="2.00"/>
<circle class="decor" cx="246.86" cy="706.87" r="2.00"/>
<circle class="decor" cx="242.99" cy="708.64" r="2.00"/>
<circle class="decor" cx="260.12" cy="649.86" r="2.00"/>
<circle class="decor" cx="818.61" cy="126.31" r="2.00"/>
<circle class="decor" cx="324.67" cy="201.46" r="2.00"/>
<circle class="decor" cx="814.48" cy="109.42" r="2.00"/>
<circle class="decor" cx="75.76" cy="799.11" r="2.00"/>
<circle class="decor" cx="957.36" cy="591.98" r="2.00"/>
<circle class="decor" cx="837.41" cy="150.59" r="2.00"/>
<circle class="decor" cx="139.52" cy="110.64" r="2.00"/>
<circle class="decor" cx="667.62" cy="614.18" r="2.00"/>
<circle class="decor" cx="542.83" cy="716.15" r="2.00"/>
<circle class="decor" cx="955.72" cy="181.50" r="2.00"/>
<circle class="decor" cx="44.28" cy="826.25" r="2.00"/>
<circle class="decor" cx="81.38" cy="816.17" r="2.00"/>
<circle class="decor" cx="750.34" cy="195.75" r="2.00"/>
<circle class="decor" cx="539.10" cy="902.82" r="2.00"/>
<circle class="decor" cx="920.90" cy="547.84" r="2.00"/>
<circle class="decor" cx="601.17" cy="964.15" r="2.00"/>
<circle class="decor" cx="660.85" cy="666.15" r="2.00"/>
<circle class="decor" cx="179.75" cy="765.29" r="2.00"/>
<circle class="decor" cx="825.33" cy="972.62" r="2.00"/>
<circle class="decor" cx="959.32" cy="89.71" r="2.00"/>
<circle class="decor" cx="465.44" cy="808.54" r="2.00"/>
<circle class="decor" cx="832.51" cy="657.63" r="2.00"/>
<circle class="decor" cx="966.58" cy="976.97" r="2.00"/>
<circle class="decor" cx="946.72" cy="86.12" r="2.00"/>
<circle class="decor" cx="162.13" cy="668.99" r="2.00"/>
<circle class="decor" cx="951.68" cy="633.00" r="2.00"/>
<circle class="decor" cx="583.94" cy="644.12" r="2.00"/>
<circle class="decor" cx="30.42" cy="704.17" r="2.00"/>
<circle class="decor" cx="920.83" cy="889.72" r="2.00"/>
<circle class="decor" cx="701.89" cy="164.25" r="2.00"/>
<circle class="decor" cx="430.12" cy="964.78" r="2.00"/>
<circle class="decor" cx="749.80" cy="133.87" r="2.00"/>
<circle class="decor" cx="789.20" cy="627.07" r="2.00"/>
<circle class="decor" cx="761.72" cy="976.61" r="2.00"/>
<circle class="decor" cx="921.33" cy="78.51" r="2.00"/>
<circle class="decor" cx="641.41" cy="831.50" r="2.00"/>
<circle class="decor" cx="716.69" cy="77.87" r="2.00"/>
<circle class="decor" cx="93.00" cy="51.72" r="2.00"/>
<circle class="decor" cx="686.61" cy="453.18" r="2.00"/>
<circle class="decor" cx="172.28" cy="537.86" r="2.00"/>
<circle class="decor" cx="936.14" cy="558.83" r="2.00"/>
<circle class="decor" cx="918.99" cy="817.37" r="2.00"/>
<circle class="decor" cx="618.86" cy="966.41" r="2.00"/>
<circle class="decor" cx="577.50" cy="311.61" r="2.00"/>
<circle class="decor" cx="588.19" cy="273.33" r="2.00"/>
<circle class="decor" cx="396.95" cy="252.19" r="2.00"/>
<circle class="decor" cx="858.84" cy="377.16" r="2.00"/>
<circle class="decor" cx="910.60" cy="383.98" r="2.00"/>
<circle class="decor" cx="907.74" cy="475.28" r="2.00"/>
<circle class="decor" cx="187.35" cy="934.03" r="2.00"/>
<circle class="decor" cx="141.71" cy="881.55" r="2.00"/>
<circle class="decor" cx="165.98" cy="423.37" r="2.00"/>
<circle class="decor" cx="173.98" cy="405.73" r="2.00"/>
<circle class="decor" cx="182.16" cy="284.28" r="2.00"/>
<circle class="decor" cx="142.59" cy="186.36" r="2.00"/>
<circle class="decor" cx="751.01" cy="761.18" r="2.00"/>
<circle class="decor" cx="738.81" cy="747.55" r="2.00"/>
<circle class="decor" cx="773.42" cy="897.15" r="2.00"/>
<circle class="decor" cx="265.39" cy="694.66" r="2.00"/>
<circle class="decor" cx="289.08" cy="632.93" r="2.00"/>
<circle class="decor" cx="101.17" cy="550.58" r="2.00"/>
<circle class="decor" cx="887.87" cy="75.59" r="2.00"/>
<circle class="decor" cx="477.58" cy="772.02" r="2.00"/>
<circle class="decor" cx="352.57" cy="756.79" r="2.00"/>
<circle class="decor" cx="919.94" cy="974.22" r="2.00"/>
<circle class="decor" cx="158.79" cy="562.33" r="2.00"/>
<circle class="decor" cx="244.07" cy="54.19" r="2.00"/>
<circle class="decor" cx="105.62" cy="548.97" r="2.00"/>
<circle class="decor" cx="143.04" cy="73.53" r="2.00"/>
<circle class="decor" cx="640.17" cy="143.62" r="2.00"/>
<circle class="decor" cx="108.08" cy="646.76" r="2.00"/>
<circle class="decor" cx="318.79" cy="280.55" r="2.00"/>
<circle class="decor" cx="546.57" cy="134.99" r="2.00"/>
<circle class="decor" cx="655.58" cy="602.21" r="2.00"/>
<circle class="decor" cx="692.28" cy="348.16" r="2.00"/>
<circle class="decor" cx="789.27" cy="812.29" r="2.00"/>
<circle class="decor" cx="776.55" cy="362.30" r="2.00"/>
<circle class="decor" cx="525.28" cy="266.00" r="2.00"/>
<circle class="decor" cx="463.58" cy="257.13" r="2.00"/>
<circle class="decor" cx="917.86" cy="364.61" r="2.00"/>
<circle class="decor" cx="316.77" cy="892.80" r="2.00"/>
<circle class="decor" cx="125.76" cy="395.59" r="2.00"/>
<circle class="decor" cx="166.75" cy="328.40" r="2.00"/>
<circle class="decor" cx="770.33" cy="735.78" r="2.00"/>
<circle class="decor" cx="751.57" cy="934.43" r="2.00"/>
<circle class="decor" cx="274.28" cy="663.10" r="2.00"/>
<circle class="decor" cx="339.01" cy="186.58" r="2.00"/>
<circle class="decor" cx="167.71" cy="568.76" r="2.00"/>
<circle class="decor" cx="124.67" cy="546.60" r="2.00"/>
<circle class="decor" cx="455.42" cy="352.08" r="2.00"/>
<circle class="decor" cx="179.90" cy="558.74" r="2.00"/>
<circle class="decor" cx="626.67" cy="733.17" r="2.00"/>
<circle class="decor" cx="863.32" cy="37.81" r="2.00"/>
<circle class="decor" cx="522.28" cy="729.99" r="2.00"/>
<circle class="decor" cx="137.92" cy="769.94" r="2.00"/>
<circle class="arrival" cx="500.00" cy="500.00" r="10"/>
<polyline class="path" points="504.1,495.9 495.9,495.9 487.7,495.9 479.5,495.9 471.3,495.9 463.1,495.9 454.9,495.9 446.7,495.9 438.5,495.9 430.3,495.9 422.1,495.9 413.9,495.9 413.9,504.1 413.9,512.3 413.9,520.5 413.9,528.7 413.9,536.9 413.9,545.1 413.9,553.3 413.9,561.5 413.9,569.7 413.9,577.9 413.9,586.1 413.9,594.3 413.9,602.5 413.9,610.7 413.9,618.9 413.9,627.0 405.7,627.0 405.7,635.2 397.5,635.2 397.5,643.4 389.3,643.4 381.1,643.4 373.0,643.4 373.0,651.6 373.0,659.8 373.0,668.0 373.0,676.2 373.0,684.4 373.0,692.6 373.0,700.8 373.0,709.0 373.0,717.2 373.0,725.4 373.0,733.6 373.0,741.8 373.0,750.0 373.0,758.2 373.0,766.4 373.0,774.6 373.0,782.8 373.0,791.0 373.0,799.2 373.0,807.4 373.0,815.6 373.0,823.8 373.0,832.0 373.0,840.2 373.0,848.4 373.0,856.6 373.0,864.8 373.0,873.0 373.0,881.1 373.0,889.3 373.0,897.5 373.0,905.7 373.0,913.9 373.0,922.1 373.0,930.3 373.0,938.5 373.0,946.7 373.0,954.9 373.0,963.1 373.0,971.3 364.8,971.3 356.6,971.3 348.4,971.3 340.2,971.3 332.0,971.3 323.8,971.3 315.6,971.3 307.4,971.3 299.2,971.3 291.0,971.3 282.8,971.3 274.6,971.3 266.4,971.3 258.2,971.3 250.0,971.3 241.8,971.3 233.6,971.3 225.4,971.3 217.2,971.3 209.0,971.3 200.8,971.3 192.6,971.3 184.4,971.3 176.2,971.3 168.0,971.3 159.8,971.3 151.6,971.3 143.4,971.3 135.2,971.3 127.0,971.3 118.9,971.3 110.7,971.3 102.5,971.3 94.3,971.3 94.3,963.1 94.3,954.9 94.3,946.7 94.3,938.5 94.3,930.3 94.3,922.1 94.3,913.9 86.1,913.9 86.1,905.7 77.9,905.7"/>
<text x="24" y="38" font-size="28" font-weight="bold">Seed 1793 — VALID — score 78.4</text><text x="24" y="68" font-size="18">Layouts 6 | plateformes 12 | couverture 16.2% | base 99.9%</text></svg>