<svg xmlns="http://www.w3.org/2000/svg" width="1000" height="1000"><style>.bg{fill:#151922}.platform{fill:#4a9d59;stroke:#bde6a5;stroke-width:2}.ramp{fill:#d9aa4d;stroke:#ffe09a;opacity:.85}.link{fill:#4f83b8;stroke:#b8ddff;opacity:.75}.decor{fill:#315f38;opacity:.75}.blocker{fill:#ad4e46;opacity:.8}.arrival{fill:#fff;stroke:#00e5ff;stroke-width:4}.path{fill:none;stroke:#ff4fe1;stroke-width:4}text{fill:white;font-family:Arial}</style><rect class="bg" width="1000" height="1000"/>
<rect class="platform" x="90.87" y="358.76" width="127.05" height="110.66"/>
<rect class="platform" x="242.51" y="325.97" width="118.85" height="102.46"/>
<rect class="platform" x="92.26" y="781.81" width="131.15" height="131.15"/>
<rect class="platform" x="22.59" y="699.84" width="81.97" height="81.97"/>
<rect class="platform" x="740.06" y="369.85" width="102.46" height="110.66"/>
<rect class="platform" x="660.14" y="476.41" width="90.16" height="86.07"/>
<rect class="platform" x="660.14" y="287.88" width="90.16" height="86.07"/>
<rect class="platform" x="77.98" y="146.77" width="241.80" height="94.26"/>
<rect class="platform" x="850.74" y="792.89" width="127.05" height="110.66"/>
<rect class="platform" x="707.30" y="833.87" width="118.85" height="102.46"/>
<rect class="platform" x="898.90" y="369.74" width="94.26" height="241.80"/>
<rect class="ramp" x="90.87" y="295.52" width="127.05" height="63.23"/>
<rect class="ramp" x="242.51" y="428.43" width="118.85" height="129.29"/>
<rect class="ramp" x="223.41" y="781.81" width="340.16" height="131.15"/>
<rect class="ramp" x="22.59" y="640.44" width="81.97" height="59.41"/>
<rect class="ramp" x="636.47" y="369.85" width="103.59" height="110.66"/>
<rect class="ramp" x="660.14" y="562.47" width="90.16" height="142.73"/>
<rect class="ramp" x="660.14" y="145.15" width="90.16" height="142.73"/>
<rect class="ramp" x="28.80" y="146.77" width="49.18" height="94.26"/>
<rect class="ramp" x="319.79" y="146.77" width="49.18" height="94.26"/>
<rect class="ramp" x="850.74" y="903.54" width="127.05" height="49.18"/>
<rect class="ramp" x="707.30" y="777.85" width="118.85" height="56.02"/>
<rect class="ramp" x="898.90" y="611.54" width="94.26" height="97.39"/>
<rect class="ramp" x="898.90" y="272.35" width="94.26" height="97.39"/>
<rect class="link" x="176.35" y="251.28" width="45.08" height="97.23"/>
<rect class="link" x="135.30" y="479.66" width="45.08" height="145.95"/>
<rect class="link" x="135.30" y="625.61" width="45.08" height="145.95"/>
<rect class="link" x="330.03" y="171.36" width="199.89" height="45.08"/>
<rect class="link" x="529.92" y="171.36" width="199.89" height="45.08"/>
<rect class="link" x="707.27" y="193.90" width="45.08" height="231.27"/>
<rect class="link" x="866.11" y="425.18" width="45.08" height="65.46"/>
<rect class="link" x="891.73" y="621.79" width="45.08" height="160.85"/>
<circle class="blocker" cx="163.54" cy="429.83" r="36.89"/>
<circle class="blocker" cx="146.17" cy="894.26" r="36.89"/>
<circle class="blocker" cx="279.00" cy="184.54" r="36.89"/>
<circle class="blocker" cx="897.25" cy="869.08" r="36.89"/>
<circle class="blocker" cx="977.54" cy="556.18" r="36.89"/>
<circle class="blocker" cx="299.46" cy="758.07" r="36.89"/>
<circle class="blocker" cx="875.99" cy="592.43" r="36.89"/>
<circle class="blocker" cx="827.52" cy="87.79" r="36.89"/>
<circle class="blocker" cx="45.49" cy="912.88" r="36.89"/>
<circle class="blocker" cx="90.55" cy="333.19" r="36.89"/>
<circle class="blocker" cx="694.91" cy="966.47" r="36.89"/>
<circle class="blocker" cx="34.06" cy="808.26" r="36.89"/>
<circle class="blocker" cx="282.52" cy="300.28" r="36.89"/>
<circle class="blocker" cx="421.87" cy="22.56" r="36.89"/>
<circle class="blocker" cx="561.16" cy="756.48" r="36.89"/>
<circle class="blocker" cx="497.89" cy="29.63" r="36.89"/>
<circle class="blocker" cx="566.46" cy="902.49" r="36.89"/>
<circle class="blocker" cx="714.36" cy="679.89" r="36.89"/>
<circle class="blocker" cx="401.65" cy="726.16" r="36.89"/>
<circle class="blocker" cx="245.61" cy="58.57" r="36.89"/>
<circle class="blocker" cx="825.74" cy="181.05" r="36.89"/>
<circle class="decor" cx="136.63" cy="384.98" r="7.79"/>
<circle class="decor" cx="763.37" cy="447.23" r="7.79"/>
<circle class="decor" cx="706.70" cy="516.61" r="7.79"/>
<circle class="decor" cx="177.57" cy="219.07" r="7.79"/>
<circle class="decor" cx="954.86" cy="848.88" r="7.79"/>
<circle class="decor" cx="927.55" cy="447.61" r="7.79"/>
<circle class="decor" cx="949.21" cy="283.32" r="7.79"/>
<circle class="decor" cx="800.41" cy="740.50" r="7.79"/>
<circle class="decor" cx="375.02" cy="634.41" r="7.79"/>
<circle class="decor" cx="972.79" cy="141.83" r="7.79"/>
<circle class="decor" cx="158.17" cy="71.36" r="7.79"/>
<circle class="blocker" cx="401.51" cy="620.51" r="14.75"/>
<circle class="decor" cx="110.07" cy="403.60" r="11.07"/>
<circle class="decor" cx="776.20" cy="851.13" r="11.07"/>
<circle class="decor" cx="424.92" cy="95.98" r="11.07"/>
<circle class="decor" cx="233.49" cy="500.68" r="11.07"/>
<circle class="decor" cx="588.68" cy="49.80" r="11.07"/>
<circle class="blocker" cx="286.75" cy="405.33" r="6.97"/>
<circle class="blocker" cx="163.22" cy="802.82" r="6.97"/>
<circle class="blocker" cx="683.57" cy="533.12" r="6.97"/>
<circle class="blocker" cx="133.30" cy="182.11" r="6.97"/>
<circle class="blocker" cx="880.80" cy="817.23" r="6.97"/>
<circle class="blocker" cx="790.26" cy="863.38" r="6.97"/>
<circle class="blocker" cx="938.32" cy="530.34" r="6.97"/>
<circle class="blocker" cx="962.84" cy="350.43" r="6.97"/>
<circle class="blocker" cx="270.46" cy="451.12" r="6.97"/>
<circle class="blocker" cx="449.27" cy="305.45" r="6.97"/>
<circle class="blocker" cx="413.52" cy="74.78" r="6.97"/>
<circle class="blocker" cx="731.65" cy="778.56" r="6.97"/>
<circle class="blocker" cx="773.30" cy="166.23" r="6.97"/>
<circle class="blocker" cx="968.18" cy="770.89" r="6.97"/>
<circle class="blocker" cx="746.17" cy="790.42" r="6.97"/>
<circle class="blocker" cx="880.49" cy="197.46" r="6.97"/>
<circle class="blocker" cx="596.68" cy="242.13" r="6.97"/>
<circle class="decor" cx="111.53" cy="448.91" r="2.00"/>
<circle class="decor" cx="115.01" cy="422.22" r="2.00"/>
<circle class="decor" cx="147.20" cy="382.06" r="2.00"/>
<circle class="decor" cx="342.92" cy="405.02" r="2.00"/>
<circle class="decor" cx="315.61" cy="381.85" r="2.00"/>
<circle class="decor" cx="272.32" cy="391.96" r="2.00"/>
<circle class="decor" cx="113.19" cy="808.57" r="2.00"/>
<circle class="decor" cx="172.86" cy="866.62" r="2.00"/>
<circle class="decor" cx="174.31" cy="824.94" r="2.00"/>
<circle class="decor" cx="108.40" cy="862.87" r="2.00"/>
<circle class="decor" cx="47.00" cy="724.83" r="2.00"/>
<circle class="decor" cx="59.33" cy="738.02" r="2.00"/>
<circle class="decor" cx="805.28" cy="423.02" r="2.00"/>
<circle class="decor" cx="774.23" cy="384.25" r="2.00"/>
<circle class="decor" cx="772.05" cy="397.80" r="2.00"/>
<circle class="decor" cx="700.15" cy="540.88" r="2.00"/>
<circle class="decor" cx="679.59" cy="499.25" r="2.00"/>
<circle class="decor" cx="733.02" cy="347.82" r="2.00"/>
<circle class="decor" cx="677.48" cy="347.75" r="2.00"/>
<circle class="decor" cx="206.73" cy="203.33" r="2.00"/>
<circle class="decor" cx="164.64" cy="194.07" r="2.00"/>
<circle class="decor" cx="98.12" cy="194.48" r="2.00"/>
<circle class="decor" cx="105.77" cy="181.13" r="2.00"/>
<circle class="decor" cx="184.91" cy="182.93" r="2.00"/>
<circle class="decor" cx="174.58" cy="208.96" r="2.00"/>
<circle class="decor" cx="869.73" cy="833.49" r="2.00"/>
<circle class="decor" cx="928.44" cy="839.85" r="2.00"/>
<circle class="decor" cx="962.79" cy="869.86" r="2.00"/>
<circle class="decor" cx="805.72" cy="895.00" r="2.00"/>
<circle class="decor" cx="802.63" cy="878.48" r="2.00"/>
<circle class="decor" cx="722.69" cy="900.69" r="2.00"/>
<circle class="decor" cx="976.17" cy="506.25" r="2.00"/>
<circle class="decor" cx="974.82" cy="431.68" r="2.00"/>
<circle class="decor" cx="966.71" cy="453.94" r="2.00"/>
<circle class="decor" cx="957.62" cy="522.33" r="2.00"/>
<circle class="decor" cx="923.62" cy="385.67" r="2.00"/>
<circle class="decor" cx="975.63" cy="480.98" r="2.00"/>
<circle class="decor" cx="747.52" cy="765.47" r="2.00"/>
<circle class="decor" cx="974.81" cy="193.88" r="2.00"/>
<circle class="decor" cx="771.42" cy="150.01" r="2.00"/>
<circle class="decor" cx="899.32" cy="280.84" r="2.00"/>
<circle class="decor" cx="62.53" cy="391.05" r="2.00"/>
<circle class="decor" cx="854.23" cy="700.32" r="2.00"/>
<circle class="decor" cx="490.16" cy="341.75" r="2.00"/>
<circle class="decor" cx="610.62" cy="362.23" r="2.00"/>
<circle class="decor" cx="357.90" cy="298.99" r="2.00"/>
<circle class="decor" cx="379.48" cy="355.06" r="2.00"/>
<circle class="decor" cx="603.74" cy="271.20" r="2.00"/>
<circle class="decor" cx="366.59" cy="301.43" r="2.00"/>
<circle class="decor" cx="366.95" cy="150.59" r="2.00"/>
<circle class="decor" cx="326.93" cy="832.44" r="2.00"/>
<circle class="decor" cx="482.21" cy="749.66" r="2.00"/>
<circle class="decor" cx="420.44" cy="934.88" r="2.00"/>
<circle class="decor" cx="265.06" cy="899.04" r="2.00"/>
<circle class="decor" cx="833.54" cy="812.79" r="2.00"/>
<circle class="decor" cx="785.64" cy="702.68" r="2.00"/>
<circle class="decor" cx="614.75" cy="713.87" r="2.00"/>
<circle class="decor" cx="941.40" cy="171.65" r="2.00"/>
<circle class="decor" cx="352.03" cy="953.05" r="2.00"/>
<circle class="decor" cx="60.24" cy="613.17" r="2.00"/>
<circle class="decor" cx="782.75" cy="234.35" r="2.00"/>
<circle class="decor" cx="719.14" cy="75.35" r="2.00"/>
<circle class="decor" cx="247.09" cy="105.57" r="2.00"/>
<circle class="decor" cx="334.45" cy="124.65" r="2.00"/>
<circle class="decor" cx="353.20" cy="848.72" r="2.00"/>
<circle class="decor" cx="625.93" cy="136.50" r="2.00"/>
<circle class="decor" cx="773.42" cy="552.32" r="2.00"/>
<circle class="decor" cx="961.11" cy="720.34" r="2.00"/>
<circle class="decor" cx="777.85" cy="661.17" r="2.00"/>
<circle class="decor" cx="370.66" cy="853.53" r="2.00"/>
<circle class="decor" cx="199.07" cy="641.07" r="2.00"/>
<circle class="decor" cx="616.15" cy="110.09" r="2.00"/>
<circle class="decor" cx="252.74" cy="806.93" r="2.00"/>
<circle class="decor" cx="648.00" cy="418.15" r="2.00"/>
<circle class="decor" cx="72.11" cy="81.98" r="2.00"/>
<circle class="decor" cx="265.72" cy="849.97" r="2.00"/>
<circle class="decor" cx="127.12" cy="102.57" r="2.00"/>
<circle class="decor" cx="976.18" cy="353.61" r="2.00"/>
<circle class="decor" cx="616.84" cy="244.64" r="2.00"/>
<circle class="decor" cx="393.02" cy="361.65" r="2.00"/>
<circle class="decor" cx="106.44" cy="449.31" r="2.00"/>
<circle class="decor" cx="171.03" cy="383.50" r="2.00"/>
<circle class="decor" cx="319.00" cy="402.34" r="2.00"/>
<circle class="decor" cx="46.88" cy="756.72" r="2.00"/>
<circle class="decor" cx="822.06" cy="435.00" r="2.00"/>
<circle class="decor" cx="725.06" cy="520.18" r="2.00"/>
<circle class="decor" cx="700.55" cy="332.76" r="2.00"/>
<circle class="decor" cx="206.50" cy="164.09" r="2.00"/>
<circle class="decor" cx="149.42" cy="215.02" r="2.00"/>
<circle class="decor" cx="867.14" cy="810.77" r="2.00"/>
<circle class="decor" cx="949.01" cy="884.39" r="2.00"/>
<circle class="decor" cx="726.99" cy="912.92" r="2.00"/>
<circle class="decor" cx="790.79" cy="877.76" r="2.00"/>
<circle class="decor" cx="917.74" cy="398.17" r="2.00"/>
<circle class="decor" cx="940.78" cy="426.70" r="2.00"/>
<circle class="decor" cx="932.35" cy="398.51" r="2.00"/>
<circle class="decor" cx="503.19" cy="821.39" r="2.00"/>
<circle class="decor" cx="238.47" cy="107.00" r="2.00"/>
<circle class="decor" cx="71.98" cy="617.01" r="2.00"/>
<circle class="decor" cx="300.81" cy="904.76" r="2.00"/>
<circle class="decor" cx="856.45" cy="124.06" r="2.00"/>
<circle class="decor" cx="776.40" cy="211.33" r="2.00"/>
<circle class="decor" cx="355.45" cy="651.88" r="2.00"/>
<circle class="decor" cx="627.75" cy="144.96" r="2.00"/>
<circle class="decor" cx="345.27" cy="505.18" r="2.00"/>
<circle class="decor" cx="620.25" cy="843.48" r="2.00"/>
<circle class="decor" cx="818.53" cy="222.32" r="2.00"/>
<circle class="decor" cx="130.39" cy="36.25" r="2.00"/>
<circle class="decor" cx="313.70" cy="257.24" r="2.00"/>
<circle class="decor" cx="865.77" cy="214.85" r="2.00"/>
<circle class="decor" cx="964.32" cy="632.91" r="2.00"/>
<circle class="decor" cx="442.53" cy="326.98" r="2.00"/>
<circle class="decor" cx="123.73" cy="383.27" r="2.00"/>
<circle class="decor" cx="38.03" cy="720.72" r="2.00"/>
<circle class="decor" cx="794.51" cy="400.32" r="2.00"/>
<circle class="decor" cx="141.97" cy="164.93" r="2.00"/>
<circle class="decor" cx="232.47" cy="188.67" r="2.00"/>
<circle class="decor" cx="949.07" cy="406.63" r="2.00"/>
<circle class="decor" cx="913.62" cy="524.38" r="2.00"/>
<circle class="decor" cx="412.35" cy="792.40" r="2.00"/>
<circle class="decor" cx="803.24" cy="812.53" r="2.00"/>
<circle class="decor" cx="870.54" cy="517.95" r="2.00"/>
<circle class="decor" cx="581.58" cy="966.14" r="2.00"/>
<circle class="decor" cx="248.24" cy="277.81" r="2.00"/>
<circle class="decor" cx="44.76" cy="527.09" r="2.00"/>
<circle class="decor" cx="527.39" cy="822.49" r="2.00"/>
<circle class="decor" cx="929.21" cy="306.92" r="2.00"/>
<circle class="decor" cx="48.93" cy="596.08" r="2.00"/>
<circle class="arrival" cx="500.00" cy="500.00" r="10"/>
<polyline class="path" points="504.1,495.9 512.3,495.9 520.5,495.9 528.7,495.9 536.9,495.9 545.1,495.9 553.3,495.9 561.5,495.9 569.7,495.9 577.9,495.9 586.1,495.9 594.3,495.9 602.5,495.9 610.7,495.9 618.9,495.9 627.0,495.9 635.2,495.9 643.4,495.9 651.6,495.9 651.6,504.1 651.6,512.3 651.6,520.5 651.6,528.7 651.6,536.9 651.6,545.1 651.6,553.3 651.6,561.5 651.6,569.7 651.6,577.9 659.8,577.9 668.0,577.9 676.2,577.9 684.4,577.9 692.6,577.9 700.8,577.9 709.0,577.9 717.2,577.9 725.4,577.9 733.6,577.9 741.8,577.9 750.0,577.9 758.2,577.9 766.4,577.9 774.6,577.9 782.8,577.9 791.0,577.9 799.2,577.9 807.4,577.9 815.6,577.9 823.8,577.9 832.0,577.9 832.0,586.1 832.0,594.3 832.0,602.5 832.0,610.7 832.0,618.9 840.2,618.9 840.2,627.0 840.2,635.2 840.2,643.4 840.2,651.6 840.2,659.8 840.2,668.0 840.2,676.2 840.2,684.4 840.2,692.6 840.2,700.8 840.2,709.0 840.2,717.2 840.2,725.4 840.2,733.6 840.2,741.8 840.2,750.0 840.2,758.2 840.2,766.4 840.2,774.6 840.2,782.8 840.2,791.0 840.2,799.2 840.2,807.4 840.2,815.6 840.2,823.8 840.2,832.0 840.2,840.2 840.2,848.4 840.2,856.6 840.2,864.8 840.2,873.0 840.2,881.1 840.2,889.3 840.2,897.5 840.2,905.7 840.2,913.9 848.4,913.9 856.6,913.9 864.8,913.9 873.0,913.9 881.1,913.9 889.3,913.9 897.5,913.9 905.7,913.9 913.9,913.9 913.9,922.1 913.9,930.3 913.9,938.5 913.9,946.7 913.9,954.9"/>
<text x="24" y="38" font-size="28" font-weight="bold">Seed 2198 — VALID — score 80.5</text><text x="24" y="68" font-size="18">Layouts 6 | plateformes 11 | couverture 14.9% | base 100.0%</text></svg>